# Blender v2.74 (sub 0) OBJ File: ''
# www.blender.org
o unit_cube
v -0.500000 -0.500000 0.500000
v -0.500000 0.500000 0.500000
v -0.500000 -0.500000 -0.500000
v -0.500000 0.500000 -0.500000
v 0.500000 -0.500000 0.500000
v 0.500000 0.500000 0.500000
v 0.500000 -0.500000 -0.500000
v 0.500000 0.500000 -0.500000
vt 0.999900 0.000100
vt 0.999900 0.999900
vt 0.000100 0.999900
vt 0.000100 0.000100
vn -1.000000 0.000000 0.000000
vn 0.000000 0.000000 -1.000000
vn 0.000000 0.000000 1.000000
vn 0.000000 -1.000000 0.000000
vn 0.000000 1.000000 0.000000
vn 1.000000 0.000000 0.000000
f 4/1/1 3/2/1 1/3/1
f 8/1/2 7/2/2 3/3/2
f 2/3/3 1/4/3 5/1/3
f 3/4/4 7/1/4 5/2/4
f 8/2/5 4/3/5 2/4/5
f 2/4/1 4/1/1 1/3/1
f 4/4/2 8/1/2 3/3/2
f 6/2/3 2/3/3 5/1/3
f 1/3/4 3/4/4 5/2/4
f 6/1/5 8/2/5 2/4/5
f 6/3/6 5/4/6 7/1/6
f 8/2/6 6/3/6 7/1/6
